<svg xmlns="http://www.w3.org/2000/svg" viewBox="0 0 474 124" role="img" aria-label="unwindRN">
    <g transform="translate(0 0) scale(1)">
      <path d="M12 75H108C104 96 88 106 60 106C32 106 16 96 12 75Z" fill="none" stroke="#10100F" stroke-width="7" stroke-linejoin="round"/>
      <path d="M60 67C44 52 64 42 64 18C84 35 82 53 60 67Z" fill="#10100F"/>
    </g><path d="M503 465 494 469C445 448 390 434 338 428V400H375C416 399 418 395 419 327V164C419 142 405 114 382 91C354 63 322 49 283 49C248 49 220 60 204 79C190 95 183 126 183 170V465L174 469C125 448 70 434 18 428V400H55C96 399 98 395 99 327V159C99 89 105 58 123 33C145 3 183 -12 240 -12C286 -12 324 2 352 27L419 89C419 59 418 41 415 -3C466 -1 482 0 498 0C513 0 531 -1 581 -3V27L540 30C505 33 503 37 503 102Z" fill="#10100F" transform="translate(132.00 94.00) scale(0.082000 -0.082000)"/><path d="M410 -3C456 -1 472 0 489 0C504 0 522 -1 572 -3V27L531 30C496 33 495 37 494 102V295C494 412 439 469 327 469C290 469 269 463 248 444L172 378V465L163 469C114 448 59 434 7 428V400H44C85 399 87 395 88 327V102C88 37 85 33 51 30L6 27V-3C70 -1 98 0 130 0C162 0 190 -1 254 -3V27L209 30C174 33 172 37 172 102V314C172 359 238 408 299 408C366 408 410 358 410 281Z" fill="#10100F" transform="translate(179.85 94.00) scale(0.082000 -0.082000)"/><path d="M413 469C330 275 318 247 254 104L170 380C167 389 166 397 166 405C166 420 179 428 204 429L244 431V459C176 457 148 456 125 456C102 456 74 457 6 459V431L34 429C62 427 75 407 100 329L202 -7H249L347 223C356 243 357 245 399 335L535 -7H581C590 19 597 40 604 59C624 118 646 179 650 186L718 342C748 409 760 426 782 429L808 431V459C752 457 729 456 710 456C691 456 668 457 612 459V431L646 429C671 428 685 416 685 398C685 387 683 375 678 362L628 222C620 200 611 177 580 98L465 388C451 423 444 442 436 469Z" fill="#10100F" transform="translate(225.97 94.00) scale(0.082000 -0.082000)"/><path d="M188 465 179 469C130 448 75 434 23 428V400H60C101 399 103 395 104 327V102C104 37 101 33 67 30L21 27V-3C91 -1 120 0 146 0C172 0 201 -1 271 -3V27L225 30C190 34 189 36 188 102ZM142 687C112 687 86 661 86 631C86 602 112 576 141 576C170 576 197 602 197 631C197 659 170 687 142 687Z" fill="#10100F" transform="translate(292.76 94.00) scale(0.082000 -0.082000)"/><path d="M410 -3C456 -1 472 0 489 0C504 0 522 -1 572 -3V27L531 30C496 33 495 37 494 102V295C494 412 439 469 327 469C290 469 269 463 248 444L172 378V465L163 469C114 448 59 434 7 428V400H44C85 399 87 395 88 327V102C88 37 85 33 51 30L6 27V-3C70 -1 98 0 130 0C162 0 190 -1 254 -3V27L209 30C174 33 172 37 172 102V314C172 359 238 408 299 408C366 408 410 358 410 281Z" fill="#10100F" transform="translate(315.02 94.00) scale(0.082000 -0.082000)"/><path d="M412 437C356 462 328 469 293 469C266 469 242 463 217 450L129 404C71 374 35 301 35 216C35 136 62 70 110 30C145 1 192 -12 257 -12C278 -12 300 -8 305 -4L416 89L411 -3C456 -1 474 0 488 0C496 0 511 0 531 -1C538 -2 557 -2 579 -3V27L533 30C498 34 497 36 496 102V718L487 726C443 709 410 701 331 689V661H387C405 661 412 650 412 620ZM412 221C412 156 410 146 397 123C369 76 320 45 273 45C185 45 122 130 122 250C122 358 176 422 266 422C304 422 344 409 379 385C399 371 412 358 412 350Z" fill="#10100F" transform="translate(361.14 94.00) scale(0.082000 -0.082000)"/><path d="M735 831Q856 831 908.5 876.0Q961 921 961 1024Q961 1126 908.5 1170.0Q856 1214 735 1214H573V831ZM573 565V0H188V1493H776Q1071 1493 1208.5 1394.0Q1346 1295 1346 1081Q1346 933 1274.5 838.0Q1203 743 1059 698Q1138 680 1200.5 616.5Q1263 553 1327 424L1536 0H1126L944 371Q889 483 832.5 524.0Q776 565 682 565Z" fill="#10100F" transform="translate(418.65 55.00) scale(0.014160 -0.014160)"/><path d="M188 1493H618L1161 469V1493H1526V0H1096L553 1024V0H188Z" fill="#10100F" transform="translate(441.18 55.00) scale(0.014160 -0.014160)"/></svg>